#!OML:ASF I:\Actors\actors\Patient Classification 2\Patient 1\Session 1\actor1.ASF
:FULLY-SPECIFIED
:DEGREES
394
root -1.06894 18.1379 5.57603 -2.08924 -1.49789 -4.1034
lowerback 3.76818 0.633749 2.65103
upperback 0.664517 0.97825 1.76556
thorax -1.4167 0.479368 0.277093
lowerneck -10.9422 -1.9876 -2.36159
upperneck 34.4446 -2.80484 1.30929
head 13.4803 -1.36517 0.528484
rclavicle 2.25854e-014 2.33572e-014
rhumerus -32.3084 30.6954 -95.8123
rradius 94.1865
rwrist 33.5708
rhand -19.8595 -41.1106
rfingers 7.12502
rthumb 6.47542 -70.9916
lclavicle 2.25854e-014 2.33572e-014
lhumerus -25.1843 -27.5892 99.6784
lradius 90.0196
lwrist -17.8831
lhand -1.76298 -19.3011
lfingers 7.12502
lthumb 23.9007 9.2316
rfemur 0 0 0
rtibia 0
rfoot 0 0
rtoes 0
lfemur 19.0214 -6.29827 -12.6375
ltibia -17.7409
lfoot -2.86679 18.9738
ltoes -11.1832
395
root -1.0683 18.1396 5.57223 -2.06534 -1.51972 -4.07792
lowerback 3.74491 0.629536 2.6871
upperback 0.675662 0.97218 1.72913
thorax -1.39107 0.47642 0.220211
lowerneck -10.9452 -2.00636 -2.40571
upperneck 34.4563 -2.83902 1.35848
head 13.4888 -1.37961 0.550661
rclavicle 1.76592e-014 5.36719e-015
rhumerus -32.238 30.5593 -95.8374
rradius 94.1832
rwrist 33.7203
rhand -19.6117 -40.8863
rfingers 7.12502
rthumb 6.7147 -70.7598
lclavicle 1.76592e-014 5.36719e-015
lhumerus -25.1496 -27.6121 99.6134
lradius 90.0364
lwrist -17.6749
lhand -1.98718 -20.1213
lfingers 7.12502
lthumb 23.6857 8.43935
rfemur 0 0 0
rtibia 0
rfoot 0 0
rtoes 0
lfemur 18.9876 -6.26668 -12.6566
ltibia -17.7352
lfoot -2.89918 18.9785
ltoes -11.168
396
root -1.06854 18.1397 5.56895 -2.06799 -1.53417 -4.11065
lowerback 3.74648 0.619082 2.74592
upperback 0.698597 0.959886 1.72771
thorax -1.36759 0.470385 0.186582
lowerneck -10.9534 -2.0118 -2.45085
upperneck 34.4384 -2.85491 1.41482
head 13.485 -1.3852 0.578457
rclavicle 1.72384e-016 -2.28602e-015
rhumerus -32.061 30.2157 -95.6732
rradius 94.2013
rwrist 34.4919
rhand -18.6354 -40.236
rfingers 7.12502
rthumb 7.6571 -70.0773
lclavicle 1.72384e-016 -2.28602e-015
lhumerus -25.0829 -27.675 99.57
lradius 90.0571
lwrist -17.5989
lhand -2.36205 -20.7282
lfingers 7.12502
lthumb 23.3261 7.87855
rfemur 0 0 0
rtibia 0
rfoot 0 0
rtoes 0
lfemur 18.9901 -6.21949 -12.6047
ltibia -17.7503
lfoot -2.90157 18.9648
ltoes -10.9919
397
root -1.06845 18.1396 5.56611 -2.06589 -1.57976 -4.1602
lowerback 3.76104 0.621988 2.80196
upperback 0.711813 0.966399 1.74414
thorax -1.36141 0.473559 0.171705
lowerneck -10.9605 -2.01219 -2.48673
upperneck 34.4314 -2.85491 1.44001
head 13.4847 -1.38661 0.594644
rclavicle -8.25112e-015 -2.98177e-015
rhumerus -32.0513 30.2079 -95.7166
rradius 94.2066
rwrist 34.405
rhand -18.9987 -40.2261
rfingers 7.12502
rthumb 7.30643 -70.0799
lclavicle -8.25112e-015 -2.98177e-015
lhumerus -25.0086 -27.7399 99.5655
lradius 90.0947
lwrist -17.5367
lhand -2.62247 -21.0776
lfingers 7.12502
lthumb 23.0762 7.56063
rfemur 0 0 0
rtibia 0
rfoot 0 0
rtoes 0
lfemur 19.0048 -6.19935 -12.5455
ltibia -17.7786
lfoot -2.88439 18.9863
ltoes -10.9567
398
root -1.06714 18.1396 5.56317 -2.06021 -1.63644 -4.16767
lowerback 3.77206 0.634403 2.83364
upperback 0.723653 0.984217 1.74101
thorax -1.35452 0.482455 0.149877
lowerneck -10.9585 -2.0192 -2.50831
upperneck 34.4371 -2.85626 1.42935
head 13.4871 -1.39147 0.594026
rclavicle -2.2458e-014 -1.18277e-014
rhumerus -32.1627 30.3649 -95.921
rradius 94.1814
rwrist 33.6172
rhand -20.4474 -40.3598
rfingers 7.12502
rthumb 5.90786 -70.2574
lclavicle -2.2458e-014 -1.18277e-014
lhumerus -24.9491 -27.7748 99.5631
lradius 90.1563
lwrist -17.4248
lhand -2.76601 -21.2812
lfingers 7.12502
lthumb 22.9385 7.37417
rfemur 0 0 0
rtibia 0
rfoot 0 0
rtoes 0
lfemur 19.0193 -6.18169 -12.5414
ltibia -17.8045
lfoot -2.87867 19.0104
ltoes -11.0696
399
root -1.06621 18.1397 5.56057 -2.06915 -1.66607 -4.16951
lowerback 3.76749 0.639455 2.84975
upperback 0.751309 0.990503 1.74164
thorax -1.32319 0.486028 0.141471
lowerneck -10.9426 -2.02197 -2.55404
upperneck 34.427 -2.85179 1.43854
head 13.4801 -1.39437 0.606511
rclavicle 4.13099e-016 -1.72943e-014
rhumerus -32.1708 30.2915 -95.9724
rradius 94.1666
rwrist 33.0753
rhand -21.408 -39.9378
rfingers 7.12502
rthumb 4.98037 -69.8592
lclavicle 4.13099e-016 -1.72943e-014
lhumerus -24.8824 -27.7647 99.5671
lradius 90.2236
lwrist -17.2279
lhand -2.93601 -21.3554
lfingers 7.12502
lthumb 22.7754 7.3202
rfemur 0 0 0
rtibia 0
rfoot 0 0
rtoes 0
lfemur 19.0329 -6.13869 -12.538
ltibia -17.8102
lfoot -2.87563 18.9907
ltoes -11.0231
400
root -1.06572 18.1398 5.55831 -2.07173 -1.66748 -4.15704
lowerback 3.75274 0.639259 2.83626
upperback 0.772426 0.988514 1.74896
thorax -1.29364 0.485537 0.156966
lowerneck -10.9818 -2.02768 -2.64054
upperneck 34.5009 -2.85548 1.48804
head 13.5242 -1.40032 0.640551
rclavicle -1.51884e-015 2.5842e-015
rhumerus -32.168 30.0871 -95.9307
rradius 94.2024
rwrist 32.6698
rhand -22.1657 -39.4111
rfingers 7.12502
rthumb 4.24881 -69.3485
lclavicle -1.51884e-015 2.5842e-015
lhumerus -24.8116 -27.7341 99.607
lradius 90.2373
lwrist -16.9158
lhand -3.17967 -21.3885
lfingers 7.12502
lthumb 22.5415 7.31566
rfemur 0 0 0
rtibia 0
rfoot 0 0
rtoes 0
lfemur 19.0143 -6.12015 -12.5485
ltibia -17.788
lfoot -2.89285 18.9621
ltoes -10.8239
401
root -1.06498 18.1403 5.55649 -2.06581 -1.64742 -4.09745
lowerback 3.74028 0.633485 2.77056
upperback 0.770455 0.977684 1.74077
thorax -1.28985 0.480389 0.185952
lowerneck -11.0512 -2.03692 -2.67268
upperneck 34.6786 -2.85586 1.4682
head 13.6186 -1.40667 0.637864
rclavicle 1.66125e-014 7.05686e-015
rhumerus -32.2595 29.8401 -95.8953
rradius 94.2786
rwrist 32.3619
rhand -23.0274 -38.9199
rfingers 7.12502
rthumb 3.4166 -68.8723
lclavicle 1.66125e-014 7.05686e-015
lhumerus -24.7789 -27.6952 99.6597
lradius 90.1933
lwrist -16.5893
lhand -3.36345 -21.4968
lfingers 7.12502
lthumb 22.3651 7.22862
rfemur 0 0 0
rtibia 0
rfoot 0 0
rtoes 0
lfemur 18.9749 -6.15489 -12.6204
ltibia -17.7512
lfoot -2.90383 18.9738
ltoes -10.7926
402
root -1.06454 18.1404 5.55562 -2.07618 -1.62526 -4.03922
lowerback 3.74332 0.622087 2.70542
upperback 0.765714 0.959976 1.72246
thorax -1.29748 0.471662 0.204351
lowerneck -11.0734 -2.02003 -2.62272
upperneck 34.8212 -2.81809 1.38817
head 13.6836 -1.394 0.602726
rclavicle -1.68967e-015 -2.17669e-014
rhumerus -32.3763 29.5649 -95.8433
rradius 94.3973
rwrist 32.0226
rhand -23.7042 -38.4485
rfingers 7.12502
rthumb 2.76305 -68.4104
lclavicle -1.68967e-015 -2.17669e-014
lhumerus -24.7691 -27.6744 99.6765
lradius 90.1656
lwrist -16.3823
lhand -3.47445 -21.5994
lfingers 7.12502
lthumb 22.2586 7.13879
rfemur 0 0 0
rtibia 0
rfoot 0 0
rtoes 0
lfemur 18.9571 -6.16433 -12.6907
ltibia -17.7178
lfoot -2.88032 18.988
ltoes -10.8865
403
root -1.06383 18.1407 5.55539 -2.08846 -1.59563 -4.03076
lowerback 3.74096 0.609946 2.70928
upperback 0.775397 0.943393 1.71128
thorax -1.28623 0.463525 0.191592
lowerneck -11.0864 -1.99249 -2.57745
upperneck 34.8858 -2.77636 1.35034
head 13.7126 -1.37469 0.585792
rclavicle -3.80642e-015 -2.08724e-015
rhumerus -32.5034 29.29 -95.7835
rradius 94.5891
rwrist 31.4301
rhand -24.2624 -37.9092
rfingers 7.12502
rthumb 2.22391 -67.8773
lclavicle -3.80642e-015 -2.08724e-015
lhumerus -24.7193 -27.7082 99.6675
lradius 90.1677
lwrist -16.2671
lhand -3.5844 -21.5662
lfingers 7.12502
lthumb 22.153 7.18451
rfemur 0 0 0
rtibia 0
rfoot 0 0
rtoes 0
lfemur 18.9486 -6.18651 -12.7054
ltibia -17.6966
lfoot -2.86858 19.0018
ltoes -10.8655
404
root -1.06218 18.1412 5.55563 -2.08094 -1.55597 -4.05347
lowerback 3.69435 0.60163 2.74766
upperback 0.79627 0.931302 1.71678
thorax -1.23838 0.457968 0.177041
lowerneck -11.1034 -1.98257 -2.55668
upperneck 34.9135 -2.75946 1.32957
head 13.7275 -1.36705 0.576238
rclavicle -3.35139e-015 9.24349e-015
rhumerus -32.7253 29.0575 -95.7455
rradius 94.8219
rwrist 30.6291
rhand -25.0554 -37.0653
rfingers 7.12502
rthumb 1.45804 -67.0401
lclavicle -3.35139e-015 9.24349e-015
lhumerus -24.6747 -27.7385 99.6854
lradius 90.1997
lwrist -16.1934
lhand -3.75775 -21.5204
lfingers 7.12502
lthumb 21.9866 7.25004
rfemur 0 0 0
rtibia 0
rfoot 0 0
rtoes 0
lfemur 18.9335 -6.25746 -12.6931
ltibia -17.695
lfoot -2.88579 19.0301
ltoes -10.839
405
root -1.06053 18.141 5.55576 -2.07603 -1.5236 -4.05473
lowerback 3.65512 0.601334 2.75314
upperback 0.810899 0.929095 1.72105
thorax -1.20143 0.457317 0.17904
lowerneck -11.0757 -1.98447 -2.56495
upperneck 34.9061 -2.75892 1.32604
head 13.7182 -1.36837 0.57668
rclavicle -2.05928e-015 -1.55052e-014
rhumerus -32.8455 28.371 -95.4046
rradius 95.1571
rwrist 31.2402
rhand -24.4902 -36.9416
rfingers 7.12502
rthumb 2.0039 -66.9119
lclavicle -2.05928e-015 -1.55052e-014
lhumerus -24.6789 -27.7205 99.7332
lradius 90.2242
lwrist -16.149
lhand -4.03298 -21.6223
lfingers 7.12502
lthumb 21.7223 7.17889
rfemur 0 0 0
rtibia 0
rfoot 0 0
rtoes 0
lfemur 18.9342 -6.24422 -12.6956
ltibia -17.7219
lfoot -2.85699 18.9789
ltoes -10.8381
